<?xml version="1.0" encoding="utf-8"?>
<svg version="1.1" xmlns:xlink="http://www.w3.org/1999/xlink" width="70px" height="64px" xmlns="http://www.w3.org/2000/svg">
  <defs>
    <filter x="55px" y="201px" width="70px" height="64px" filterUnits="userSpaceOnUse" id="filter843">
      <feOffset dx="0" dy="0" in="SourceAlpha" result="shadowOffsetInner" />
      <feGaussianBlur stdDeviation="5" in="shadowOffsetInner" result="shadowGaussian" />
      <feComposite in2="shadowGaussian" operator="atop" in="SourceAlpha" result="shadowComposite" />
      <feColorMatrix type="matrix" values="0 0 0 0 0.76078431372549  0 0 0 0 0.501960784313725  0 0 0 0 1  0 0 0 0.313725490196078 0  " in="shadowComposite" />
    </filter>
    <g id="widget844">
      <path d="M 25.6417410714286 20.8255208333333  C 25.8091517857143 20.6536458333333  25.8928571428571 20.4340277777778  25.8928571428571 20.1666666666667  C 25.8928571428571 19.8993055555556  25.8091517857143 19.6796875  25.6417410714286 19.5078125  C 25.4743303571429 19.3359375  25.2604166666667 19.25  25 19.25  C 23.7723214285714 19.25  22.7213541666667 19.6987847222222  21.8470982142857 20.5963541666667  C 20.9728422619048 21.4939236111111  20.5357142857143 22.5729166666667  20.5357142857143 23.8333333333333  C 20.5357142857143 24.1006944444444  20.6194196428571 24.3203125  20.7868303571429 24.4921875  C 20.9542410714286 24.6640625  21.1681547619048 24.75  21.4285714285714 24.75  C 21.6889880952381 24.75  21.9029017857143 24.6640625  22.0703125 24.4921875  C 22.2377232142857 24.3203125  22.3214285714286 24.1006944444444  22.3214285714286 23.8333333333333  C 22.3214285714286 23.0694444444444  22.5818452380952 22.4201388888889  23.1026785714286 21.8854166666667  C 23.6235119047619 21.3506944444444  24.2559523809524 21.0833333333333  25 21.0833333333333  C 25.2604166666667 21.0833333333333  25.4743303571429 20.9973958333333  25.6417410714286 20.8255208333333  Z M 30.0502232142857 18.7057291666667  C 31.4453125 20.1380208333333  32.1428571428571 21.8663194444444  32.1428571428571 23.890625  C 32.1428571428571 25.9149305555556  31.4453125 27.6432291666667  30.0502232142857 29.0755208333333  C 28.6551339285714 30.5078125  26.9717261904762 31.2239583333333  25 31.2239583333333  C 23.0282738095238 31.2239583333333  21.3448660714286 30.5078125  19.9497767857143 29.0755208333333  C 18.5546875 27.6432291666667  17.8571428571429 25.9149305555556  17.8571428571429 23.890625  C 17.8571428571429 21.8663194444444  18.5546875 20.1380208333333  19.9497767857143 18.7057291666667  C 21.3448660714286 17.2734375  23.0282738095238 16.5572916666667  25 16.5572916666667  C 26.9717261904762 16.5572916666667  28.6551339285714 17.2734375  30.0502232142857 18.7057291666667  Z M 3.57142857142857 36  L 3.57142857142857 40  L 46.4285714285714 40  L 46.4285714285714 36  L 3.57142857142857 36  Z M 32.5753348214286 31.66796875  C 34.66796875 29.51953125  35.7142857142857 26.9270833333333  35.7142857142857 23.890625  C 35.7142857142857 20.8541666666667  34.66796875 18.26171875  32.5753348214286 16.11328125  C 30.4827008928571 13.96484375  27.9575892857143 12.890625  25 12.890625  C 22.0424107142857 12.890625  19.5172991071429 13.96484375  17.4246651785714 16.11328125  C 15.33203125 18.26171875  14.2857142857143 20.8541666666667  14.2857142857143 23.890625  C 14.2857142857143 26.9270833333333  15.33203125 29.51953125  17.4246651785714 31.66796875  C 19.5172991071429 33.81640625  22.0424107142857 34.890625  25 34.890625  C 27.9575892857143 34.890625  30.4827008928571 33.81640625  32.5753348214286 31.66796875  Z M 7.14285714285714 2  L 7.14285714285714 6  L 17.8571428571429 6  L 17.8571428571429 2  L 7.14285714285714 2  Z M 3.57142857142857 8  L 3.57142857142857 11  L 46.4285714285714 11  L 46.4285714285714 7.61979166666667  L 46.4285714285714 4  L 23.3258928571429 4  L 21.5401785714286 8  L 3.57142857142857 8  Z M 48.9536830357143 1.07421875  C 49.6512276785714 1.79036458333333  50 2.65451388888889  50 3.66666666666667  L 50 40.3333333333333  C 50 41.3454861111111  49.6512276785714 42.2096354166667  48.9536830357143 42.92578125  C 48.2561383928571 43.6419270833333  47.4144345238095 44  46.4285714285714 44  L 3.57142857142857 44  C 2.58556547619048 44  1.74386160714286 43.6419270833333  1.04631696428571 42.92578125  C 0.348772321428571 42.2096354166667  0 41.3454861111111  0 40.3333333333333  L 0 3.66666666666667  C 0 2.65451388888889  0.348772321428571 1.79036458333333  1.04631696428571 1.07421875  C 1.74386160714286 0.358072916666668  2.58556547619048 0  3.57142857142857 0  L 46.4285714285714 0  C 47.4144345238095 0  48.2561383928571 0.358072916666668  48.9536830357143 1.07421875  Z " fill-rule="nonzero" fill="#402b54" stroke="none" transform="matrix(1 0 0 1 65 211 )" />
    </g>
  </defs>
  <g transform="matrix(1 0 0 1 -55 -201 )">
    <use xlink:href="#widget844" filter="url(#filter843)" />
    <use xlink:href="#widget844" />
  </g>
</svg>