<?xml version="1.0" encoding="utf-8"?>
<svg version="1.1" xmlns:xlink="http://www.w3.org/1999/xlink" width="13px" height="11px" xmlns="http://www.w3.org/2000/svg">
  <g transform="matrix(1 0 0 1 -48 -762 )">
    <path d="M 6.0627802690583 8.25  L 6.47085201793722 8.25  L 7.31614349775785 7.34375  L 6.2085201793722 6.15625  L 5.36322869955157 7.0625  L 5.36322869955157 7.5  L 6.0627802690583 7.5  L 6.0627802690583 8.25  Z M 9.66984304932735 2.8828125  C 9.75242899850523 2.79427083333333  9.75485799701046 2.70833333333333  9.67713004484305 2.625  C 9.59940209267564 2.54166666666667  9.51924514200299 2.54427083333333  9.43665919282511 2.6328125  L 6.88621076233184 5.3671875  C 6.80362481315396 5.45572916666667  6.80119581464873 5.54166666666667  6.87892376681614 5.625  C 6.95665171898356 5.70833333333333  7.0368086696562 5.70572916666667  7.11939461883408 5.6171875  L 9.66984304932735 2.8828125  Z M 10.1143497757848 7.0390625  C 10.211509715994 7.08072916666667  10.2600896860987 7.15625  10.2600896860987 7.265625  L 10.2600896860987 8.75  C 10.2600896860987 9.36979166666667  10.0548393124066 9.89973958333333  9.64433856502242 10.33984375  C 9.23383781763827 10.7799479166667  8.73953662182362 11  8.16143497757848 11  L 2.09865470852018 11  C 1.52055306427504 11  1.02625186846039 10.7799479166667  0.615751121076233 10.33984375  C 0.205250373692078 9.89973958333333  0 9.36979166666667  0 8.75  L 0 2.25  C 0 1.63020833333333  0.205250373692078 1.10026041666667  0.615751121076233 0.66015625  C 1.02625186846039 0.220052083333332  1.52055306427504 0  2.09865470852018 0  L 8.16143497757848 0  C 8.46748878923767 0  8.75168161434978 0.0651041666666661  9.0140134529148 0.195312499999999  C 9.08688340807175 0.231770833333333  9.13060538116592 0.291666666666666  9.14517937219731 0.375  C 9.1597533632287 0.463541666666666  9.13789237668161 0.539062499999999  9.07959641255605 0.6015625  L 8.72253363228699 0.984375  C 8.65452167414051 1.05729166666667  8.5767937219731 1.078125  8.48934977578475 1.046875  C 8.3776158445441 1.015625  8.26831091180867 1  8.16143497757848 1  L 2.09865470852018 1  C 1.7780269058296 1  1.50355007473842 1.12239583333333  1.27522421524664 1.3671875  C 1.04689835575486 1.61197916666667  0.932735426008969 1.90625  0.932735426008969 2.25  L 0.932735426008969 8.75  C 0.932735426008969 9.09375  1.04689835575486 9.38802083333333  1.27522421524664 9.6328125  C 1.50355007473842 9.87760416666667  1.7780269058296 10  2.09865470852018 10  L 8.16143497757848 10  C 8.48206278026906 10  8.75653961136024 9.87760416666667  8.98486547085202 9.6328125  C 9.2131913303438 9.38802083333333  9.32735426008969 9.09375  9.32735426008969 8.75  L 9.32735426008969 7.765625  C 9.32735426008969 7.69791666666667  9.34921524663677 7.640625  9.39293721973094 7.59375  L 9.85930493273543 7.09375  C 9.93217488789238 7.015625  10.0171898355755 6.99739583333333  10.1143497757848 7.0390625  Z M 4.66367713004484 6.75  L 9.56053811659193 1.5  L 11.6591928251121 3.75  L 6.76233183856502 9  L 4.66367713004484 9  L 4.66367713004484 6.75  Z M 13 2  C 13 2.20833333333333  12.9319880418535 2.38541666666667  12.7959641255605 2.53125  L 12.1255605381166 3.25  L 10.0269058295964 1  L 10.6973094170404 0.281249999999999  C 10.8333333333333 0.135416666666666  10.9985052316891 0.0625000000000006  11.1928251121076 0.0625000000000006  C 11.3871449925262 0.0625000000000006  11.5523168908819 0.135416666666666  11.6883408071749 0.281249999999999  L 12.7959641255605 1.46875  C 12.9319880418535 1.61458333333333  13 1.79166666666667  13 2  Z " fill-rule="nonzero" fill="#402b54" stroke="none" transform="matrix(1 0 0 1 48 762 )" />
  </g>
</svg>