<?xml version="1.0" encoding="utf-8"?>
<svg version="1.1" xmlns:xlink="http://www.w3.org/1999/xlink" width="14px" height="16px" xmlns="http://www.w3.org/2000/svg">
  <g transform="matrix(1 0 0 1 -30 -82 )">
    <path d="M 13.7594501718213 0.96192384769539  C 13.9198167239404 1.0688042752171  14 1.19171676686707  14 1.33066132264529  C 14 1.46960587842351  13.9198167239404 1.59251837007348  13.7594501718213 1.69939879759519  L 4.30584192439863 8  L 13.7594501718213 14.3006012024048  C 13.9198167239404 14.4074816299265  14 14.5303941215765  14 14.6693386773547  C 14 14.8082832331329  13.9198167239404 14.9311957247829  13.7594501718213 15.0380761523046  L 12.5567010309278 15.8396793587174  C 12.3963344788087 15.9465597862391  12.2119129438717 16  12.0034364261168 16  C 11.794959908362 16  11.610538373425 15.9465597862391  11.4501718213058 15.8396793587174  L 0.240549828178694 8.3687374749499  C 0.0801832760595648 8.26185704742819  0 8.13894455577822  0 8  C 0 7.86105544422178  0.0801832760595648 7.73814295257181  0.240549828178694 7.6312625250501  L 11.4501718213058 0.160320641282565  C 11.610538373425 0.0534402137608545  11.794959908362 0  12.0034364261168 0  C 12.2119129438717 0  12.3963344788087 0.0534402137608545  12.5567010309278 0.160320641282565  L 13.7594501718213 0.96192384769539  Z " fill-rule="nonzero" fill="#402b54" stroke="none" transform="matrix(1 0 0 1 30 82 )" />
  </g>
</svg>