<?xml version="1.0" encoding="utf-8"?>
<svg version="1.1" xmlns:xlink="http://www.w3.org/1999/xlink" width="19px" height="19px" xmlns="http://www.w3.org/2000/svg">
  <g>
    <path d="M 14.9413976444125 13.2823936434958  C 14.9413976444125 13.2823936434958  18.6418700271939 16.9750099320226  18.6418700271939 16.9750099320226  C 19.119376657602 17.4514795518478  19.119376657602 18.16625377694  18.6418700271939 18.6426303362925  C 18.1643867114008 19.1191232212358  17.4481850523262 19.1191232212358  16.9706784219181 18.6426303362925  C 16.9706784219181 18.6426303362925  13.2702293537517 14.9500140477657  13.2702293537517 14.9500140477657  C 10.0471703429183 17.3324319422459  5.63040304260214 17.2132912721715  2.64613231889532 14.4735444279405  C -0.696227577041281 11.3765616944315  -0.934945920322798 5.89706800596951  2.28804314666553 2.56180393231155  C 5.51110215749895 -0.773460141346407  10.8827428309412 -0.892600811420852  14.2251260414928 2.44275632270973  C 17.2093967651996 5.42069144661697  17.4481850523262 10.0662702399123  14.9413976444125 13.2823936434958  Z M 13.0314410666251 4.82505789159921  C 14.5832152137226 6.85003051073798  14.5832152137226 9.70882496457078  13.0314410666251 11.852938253784  C 10.6440478022747 15.1883186530327  5.74979718616549 15.1883186530327  3.36242723643009 11.852938253784  C 1.81053651625746 9.82796563464523  1.81053651625746 6.85003051073798  3.36242723643009 4.82505789159921  C 5.74979718616549 1.48979381794125  10.6440478022747 1.48979381794125  13.0314410666251 4.82505789159921  Z " fill-rule="nonzero" fill="#000000" stroke="none" />
  </g>
</svg>