<?xml version="1.0" encoding="utf-8"?>
<svg version="1.1" xmlns:xlink="http://www.w3.org/1999/xlink" width="61px" height="20px" xmlns="http://www.w3.org/2000/svg">
  <defs>
    <mask fill="white" id="clip787">
      <path d="M 10.37 20  C 4.56280000000001 20  0 15.6  0 10  C 0 4.40000000000001  4.56280000000001 0  10.37 0  L 35.0992063492063 0  L 50.63 0  C 56.4372 0  61 4.40000000000001  61 10  C 61 15.6  56.4372 20  50.63 20  L 10.37 20  Z " fill-rule="evenodd" />
    </mask>
  </defs>
  <g transform="matrix(1 0 0 1 -1814 -2222 )">
    <path d="M 10.37 20  C 4.56280000000001 20  0 15.6  0 10  C 0 4.40000000000001  4.56280000000001 0  10.37 0  L 35.0992063492063 0  L 50.63 0  C 56.4372 0  61 4.40000000000001  61 10  C 61 15.6  56.4372 20  50.63 20  L 10.37 20  Z " fill-rule="nonzero" fill="#8b2ab0" stroke="none" fill-opacity="0" transform="matrix(1 0 0 1 1814 2222 )" />
    <path d="M 10.37 20  C 4.56280000000001 20  0 15.6  0 10  C 0 4.40000000000001  4.56280000000001 0  10.37 0  L 35.0992063492063 0  L 50.63 0  C 56.4372 0  61 4.40000000000001  61 10  C 61 15.6  56.4372 20  50.63 20  L 10.37 20  Z " stroke-width="2" stroke="#ffffff" fill="none" transform="matrix(1 0 0 1 1814 2222 )" mask="url(#clip787)" />
  </g>
</svg>