<?xml version="1.0" standalone="no"?><!DOCTYPE svg PUBLIC "-//W3C//DTD SVG 1.1//EN" "http://www.w3.org/Graphics/SVG/1.1/DTD/svg11.dtd"><svg t="1622183940084" class="icon" viewBox="0 0 1168 1024" version="1.1" xmlns="http://www.w3.org/2000/svg" p-id="2929" xmlns:xlink="http://www.w3.org/1999/xlink" width="228.125" height="200"><defs><style type="text/css"></style></defs><path d="M959.830344 1023.996452H206.987443a206.987443 206.987443 0 0 1-206.987443-206.987444V338.868014a206.987443 206.987443 0 0 1 206.987443-206.987443h754.025687a206.987443 206.987443 0 0 1 206.987443 206.987443v479.32378a206.987443 206.987443 0 0 1-208.170229 205.804658zM206.987443 222.067957a118.278539 118.278539 0 0 0-118.278539 118.278539v477.845298a118.278539 118.278539 0 0 0 118.278539 118.278539h754.025687a118.278539 118.278539 0 0 0 118.278539-118.278539V338.868014a118.278539 118.278539 0 0 0-118.278539-118.278539z" fill="#8B2AB0" p-id="2930"></path><path d="M582.817501 773.541645a195.159589 195.159589 0 1 1 194.863893-194.863893 195.159589 195.159589 0 0 1-194.863893 194.863893z m0-301.314578a106.450685 106.450685 0 1 0 106.154989 106.450685A106.450685 106.450685 0 0 0 582.817501 473.114156z" fill="#8B2AB0" p-id="2931"></path><path d="M306.637112 88.708904h-85.75194a44.354452 44.354452 0 1 1 0-88.708904h85.75194a44.354452 44.354452 0 0 1 0 88.708904zM565.07572 88.708904h-144.595514a44.354452 44.354452 0 0 1 0-88.708904h144.595514a44.354452 44.354452 0 0 1 0 88.708904z" fill="#8B2AB0" p-id="2932"></path></svg>