<?xml version="1.0" encoding="utf-8"?>
<svg version="1.1" xmlns:xlink="http://www.w3.org/1999/xlink" width="12px" height="7px" xmlns="http://www.w3.org/2000/svg">
  <g transform="matrix(1 0 0 1 -425 -186 )">
    <path d="M 428.1 191.839804172287  L 425.693344279933 189.5  L 428.1 187.160195827713  L 428.1 188.39  L 433.9 188.39  L 433.9 187.160195827713  L 436.306655720067 189.5  L 433.9 191.839804172287  L 433.9 190.61  L 428.1 190.61  L 428.1 191.839804172287  Z " fill-rule="nonzero" fill="#ffffff" stroke="none" />
    <path d="M 428.6 193  L 425 189.5  L 428.6 186  L 428.6 187.89  L 433.4 187.89  L 433.4 186  L 437 189.5  L 433.4 193  L 433.4 191.11  L 428.6 191.11  L 428.6 193  Z M 426.386688559867 189.5  L 427.6 190.679608344574  L 427.6 190.11  L 434.4 190.11  L 434.4 190.679608344574  L 435.613311440133 189.5  L 434.4 188.320391655426  L 434.4 188.89  L 427.6 188.89  L 427.6 188.320391655426  L 426.386688559867 189.5  Z " fill-rule="nonzero" fill="#d9001b" stroke="none" />
  </g>
</svg>