<?xml version="1.0" encoding="utf-8"?>
<svg version="1.1" xmlns:xlink="http://www.w3.org/1999/xlink" width="369px" height="19px" xmlns="http://www.w3.org/2000/svg">
  <g transform="matrix(1 0 0 1 -61 -40 )">
    <path d="M 71 55  L 71 44  L 70 44  L 70 55  L 71 55  Z M 77.0535533905933 54.1464466094067  L 72.4071067811866 49.5  L 77.0535533905933 44.8535533905933  L 76.3464466094067 44.1464466094067  L 71.3464466094067 49.1464466094067  L 70.9928932188135 49.5  L 71.3464466094067 49.8535533905933  L 76.3464466094067 54.8535533905933  L 77.0535533905933 54.1464466094067  Z M 420 44  L 420 55  L 421 55  L 421 44  L 420 44  Z M 413.946446609407 44.8535533905933  L 418.592893218813 49.5  L 413.946446609407 54.1464466094067  L 414.653553390593 54.8535533905933  L 419.653553390593 49.8535533905933  L 420.007106781187 49.5  L 419.653553390593 49.1464466094067  L 414.653553390593 44.1464466094067  L 413.946446609407 44.8535533905933  Z " fill-rule="nonzero" fill="#d9001b" stroke="none" />
    <path d="M 70 49.5  L 421 49.5  " stroke-width="1" stroke="#d9001b" fill="none" />
  </g>
</svg>