<?xml version="1.0" encoding="utf-8"?>
<svg version="1.1" xmlns:xlink="http://www.w3.org/1999/xlink" width="18px" height="7px" xmlns="http://www.w3.org/2000/svg">
  <g transform="matrix(1 0 0 1 -419 -128 )">
    <path d="M 423.9 134.140786822287  L 419.825643188472 131.5  L 423.9 128.859213177713  L 423.9 130.39  L 432.1 130.39  L 432.1 128.859213177713  L 436.174356811528 131.5  L 432.1 134.140786822287  L 432.1 132.61  L 423.9 132.61  L 423.9 134.140786822287  Z " fill-rule="nonzero" fill="#ffffff" stroke="none" />
    <path d="M 424.4 135  L 419 131.5  L 424.4 128  L 424.4 129.89  L 431.6 129.89  L 431.6 128  L 437 131.5  L 431.6 135  L 431.6 133.11  L 424.4 133.11  L 424.4 135  Z M 420.651286376944 131.5  L 423.4 133.281573644574  L 423.4 132.11  L 432.6 132.11  L 432.6 133.281573644574  L 435.348713623056 131.5  L 432.6 129.718426355426  L 432.6 130.89  L 423.4 130.89  L 423.4 129.718426355426  L 420.651286376944 131.5  Z " fill-rule="nonzero" fill="#d9001b" stroke="none" />
  </g>
</svg>