<?xml version="1.0" encoding="utf-8"?>
<svg version="1.1" xmlns:xlink="http://www.w3.org/1999/xlink" width="16px" height="7px" xmlns="http://www.w3.org/2000/svg">
  <g transform="matrix(1 0 0 1 -105 -151 )">
    <path d="M 109.3 157.065541159787  L 105.781543552292 154.5  L 109.3 151.934458840213  L 109.3 153.39  L 116.7 153.39  L 116.7 151.934458840213  L 120.218456447708 154.5  L 116.7 157.065541159787  L 116.7 155.61  L 109.3 155.61  L 109.3 157.065541159787  Z " fill-rule="nonzero" fill="#ffffff" stroke="none" />
    <path d="M 109.8 158  L 105 154.5  L 109.8 151  L 109.8 152.89  L 116.2 152.89  L 116.2 151  L 121 154.5  L 116.2 158  L 116.2 156.11  L 109.8 156.11  L 109.8 158  Z M 106.563087104585 154.5  L 108.8 156.131082319574  L 108.8 155.11  L 117.2 155.11  L 117.2 156.131082319574  L 119.436912895415 154.5  L 117.2 152.868917680426  L 117.2 153.89  L 108.8 153.89  L 108.8 152.868917680426  L 106.563087104585 154.5  Z " fill-rule="nonzero" fill="#d9001b" stroke="none" />
  </g>
</svg>