<?xml version="1.0" encoding="utf-8"?>
<svg version="1.1" xmlns:xlink="http://www.w3.org/1999/xlink" width="22px" height="7px" xmlns="http://www.w3.org/2000/svg">
  <g transform="matrix(1 0 0 1 -102 -104 )">
    <path d="M 108.1 110.25023505865  L 102.913842460831 107.5  L 108.1 104.74976494135  L 108.1 106.39  L 117.9 106.39  L 117.9 104.74976494135  L 123.086157539169 107.5  L 117.9 110.25023505865  L 117.9 108.61  L 108.1 108.61  L 108.1 110.25023505865  Z " fill-rule="nonzero" fill="#ffffff" stroke="none" />
    <path d="M 108.6 111  L 102 107.5  L 108.6 104  L 108.6 105.89  L 117.4 105.89  L 117.4 104  L 124 107.5  L 117.4 111  L 117.4 109.11  L 108.6 109.11  L 108.6 111  Z M 103.827684921662 107.5  L 107.6 109.500470117301  L 107.6 108.11  L 118.4 108.11  L 118.4 109.500470117301  L 122.172315078338 107.5  L 118.4 105.499529882699  L 118.4 106.89  L 107.6 106.89  L 107.6 105.499529882699  L 103.827684921662 107.5  Z " fill-rule="nonzero" fill="#d9001b" stroke="none" />
  </g>
</svg>