<?xml version="1.0" encoding="utf-8"?>
<svg version="1.1" xmlns:xlink="http://www.w3.org/1999/xlink" width="6px" height="6px" xmlns="http://www.w3.org/2000/svg">
  <g transform="matrix(1 0 0 1 -74 -383 )">
    <path d="M 75.3 387.194841350859  L 74.5830951894845 386  L 75.3 384.805158649141  L 75.3 385.12  L 78.7 385.12  L 78.7 384.805158649141  L 79.4169048105155 386  L 78.7 387.194841350859  L 78.7 386.88  L 75.3 386.88  L 75.3 387.194841350859  Z " fill-rule="nonzero" fill="#ffffff" stroke="none" />
    <path d="M 75.8 389  L 74 386  L 75.8 383  L 75.8 384.62  L 78.2 384.62  L 78.2 383  L 80 386  L 78.2 389  L 78.2 387.38  L 75.8 387.38  L 75.8 389  Z M 79 385.62  L 75 385.62  L 75 386.38  L 79 386.38  L 79 385.62  Z " fill-rule="nonzero" fill="#d9001b" stroke="none" />
  </g>
</svg>