<?xml version="1.0" encoding="utf-8"?>
<svg version="1.1" xmlns:xlink="http://www.w3.org/1999/xlink" width="142px" height="19px" xmlns="http://www.w3.org/2000/svg">
  <g transform="matrix(1 0 0 1 -381 -446 )">
    <path d="M 391 461  L 391 450  L 390 450  L 390 461  L 391 461  Z M 397.053553390593 460.146446609407  L 392.407106781187 455.5  L 397.053553390593 450.853553390593  L 396.346446609407 450.146446609407  L 391.346446609407 455.146446609407  L 390.992893218813 455.5  L 391.346446609407 455.853553390593  L 396.346446609407 460.853553390593  L 397.053553390593 460.146446609407  Z M 513 450  L 513 461  L 514 461  L 514 450  L 513 450  Z M 506.946446609407 450.853553390593  L 511.592893218813 455.5  L 506.946446609407 460.146446609407  L 507.653553390593 460.853553390593  L 512.653553390593 455.853553390593  L 513.007106781186 455.5  L 512.653553390593 455.146446609407  L 507.653553390593 450.146446609407  L 506.946446609407 450.853553390593  Z " fill-rule="nonzero" fill="#d9001b" stroke="none" />
    <path d="M 390 455.5  L 514 455.5  " stroke-width="1" stroke="#d9001b" fill="none" />
  </g>
</svg>