<?xml version="1.0" encoding="utf-8"?>
<svg version="1.1" xmlns:xlink="http://www.w3.org/1999/xlink" width="130px" height="4px" preserveAspectRatio="xMinYMid meet" viewBox="386 455  130 2" xmlns="http://www.w3.org/2000/svg">
  <g transform="matrix(0 -1 1 0 -5 907 )">
    <path d="M 390.5 461.5  L 390.5 450.5  L 389.5 450.5  L 389.5 461.5  L 390.5 461.5  Z M 396.553553390593 460.646446609407  L 391.907106781187 456  L 396.553553390593 451.353553390593  L 395.846446609407 450.646446609407  L 390.846446609407 455.646446609407  L 390.492893218813 456  L 390.846446609407 456.353553390593  L 395.846446609407 461.353553390593  L 396.553553390593 460.646446609407  Z M 512.5 450.5  L 512.5 461.5  L 513.5 461.5  L 513.5 450.5  L 512.5 450.5  Z M 506.446446609407 451.353553390593  L 511.092893218813 456  L 506.446446609407 460.646446609407  L 507.153553390593 461.353553390593  L 512.153553390593 456.353553390593  L 512.507106781187 456  L 512.153553390593 455.646446609407  L 507.153553390593 450.646446609407  L 506.446446609407 451.353553390593  Z " fill-rule="nonzero" fill="#d9001b" stroke="none" transform="matrix(6.12303176911189E-17 1 -1 6.12303176911189E-17 907.5 3.5 )" />
    <path d="M 389.5 456  L 513.5 456  " stroke-width="1" stroke="#d9001b" fill="none" transform="matrix(6.12303176911189E-17 1 -1 6.12303176911189E-17 907.5 3.5 )" />
  </g>
</svg>