<?xml version="1.0" encoding="utf-8"?>
<svg version="1.1" xmlns:xlink="http://www.w3.org/1999/xlink" width="184px" height="19px" xmlns="http://www.w3.org/2000/svg">
  <g transform="matrix(1 0 0 1 -372 -236 )">
    <path d="M 382 251  L 382 240  L 381 240  L 381 251  L 382 251  Z M 388.053553390593 250.146446609407  L 383.407106781187 245.5  L 388.053553390593 240.853553390593  L 387.346446609407 240.146446609407  L 382.346446609407 245.146446609407  L 381.992893218813 245.5  L 382.346446609407 245.853553390593  L 387.346446609407 250.853553390593  L 388.053553390593 250.146446609407  Z M 546 240  L 546 251  L 547 251  L 547 240  L 546 240  Z M 539.946446609407 240.853553390593  L 544.592893218814 245.5  L 539.946446609407 250.146446609407  L 540.653553390593 250.853553390593  L 545.653553390593 245.853553390593  L 546.007106781187 245.5  L 545.653553390593 245.146446609407  L 540.653553390593 240.146446609407  L 539.946446609407 240.853553390593  Z " fill-rule="nonzero" fill="#d9001b" stroke="none" />
    <path d="M 381 245.5  L 547 245.5  " stroke-width="1" stroke="#d9001b" fill="none" />
  </g>
</svg>