<?xml version="1.0" encoding="utf-8"?>
<svg version="1.1" xmlns:xlink="http://www.w3.org/1999/xlink" width="22px" height="20.0000000349583px" preserveAspectRatio="xMinYMid meet" viewBox="452 155  22 18.0000000349583" xmlns="http://www.w3.org/2000/svg">
  <g transform="matrix(0 -1 1 0 298.999999982521 627.00000001748 )">
    <path d="M 381.5 251.5  L 381.5 240.5  L 380.5 240.5  L 380.5 251.5  L 381.5 251.5  Z M 387.553553390593 250.646446609407  L 382.907106781187 246  L 387.553553390593 241.353553390593  L 386.846446609407 240.646446609407  L 381.846446609407 245.646446609407  L 381.492893218813 246  L 381.846446609407 246.353553390593  L 386.846446609407 251.353553390593  L 387.553553390593 250.646446609407  Z M 545.5 240.5  L 545.5 251.5  L 546.5 251.5  L 546.5 240.5  L 545.5 240.5  Z M 539.446446609407 241.353553390593  L 544.092893218814 246  L 539.446446609407 250.646446609407  L 540.153553390593 251.353553390593  L 545.153553390593 246.353553390593  L 545.507106781187 246  L 545.153553390593 245.646446609407  L 540.153553390593 240.646446609407  L 539.446446609407 241.353553390593  Z " fill-rule="nonzero" fill="#d9001b" stroke="none" transform="matrix(6.12303176911189E-17 1 -1 6.12303176911189E-17 709.5 -218.5 )" />
    <path d="M 380.5 246  L 546.5 246  " stroke-width="1" stroke="#d9001b" fill="none" transform="matrix(6.12303176911189E-17 1 -1 6.12303176911189E-17 709.5 -218.5 )" />
  </g>
</svg>