<?xml version="1.0" encoding="utf-8"?>
<svg version="1.1" xmlns:xlink="http://www.w3.org/1999/xlink" width="22px" height="20.0000000185102px" preserveAspectRatio="xMinYMid meet" viewBox="440 869  22 18.0000000185102" xmlns="http://www.w3.org/2000/svg">
  <g transform="matrix(0 1 -1 0 1329.00000000926 427.000000009255 )">
    <path d="M 410.5 842.5  L 410.5 831.5  L 409.5 831.5  L 409.5 842.5  L 410.5 842.5  Z M 416.553553390593 841.646446609407  L 411.907106781186 837  L 416.553553390593 832.353553390593  L 415.846446609407 831.646446609407  L 410.846446609407 836.646446609407  L 410.492893218813 837  L 410.846446609407 837.353553390593  L 415.846446609407 842.353553390593  L 416.553553390593 841.646446609407  Z M 492.5 831.5  L 492.5 842.5  L 493.5 842.5  L 493.5 831.5  L 492.5 831.5  Z M 486.446446609407 832.353553390593  L 491.092893218814 837  L 486.446446609407 841.646446609407  L 487.153553390593 842.353553390593  L 492.153553390593 837.353553390593  L 492.507106781187 837  L 492.153553390593 836.646446609407  L 487.153553390593 831.646446609407  L 486.446446609407 832.353553390593  Z " fill-rule="nonzero" fill="#d9001b" stroke="none" transform="matrix(6.12303176911189E-17 1 -1 6.12303176911189E-17 1288.5 384.5 )" />
    <path d="M 409.5 837  L 493.5 837  " stroke-width="1" stroke="#d9001b" fill="none" transform="matrix(6.12303176911189E-17 1 -1 6.12303176911189E-17 1288.5 384.5 )" />
  </g>
</svg>