<?xml version="1.0" encoding="utf-8"?>
<svg version="1.1" xmlns:xlink="http://www.w3.org/1999/xlink" width="102px" height="19px" xmlns="http://www.w3.org/2000/svg">
  <g transform="matrix(1 0 0 1 -401 -827 )">
    <path d="M 411 842  L 411 831  L 410 831  L 410 842  L 411 842  Z M 417.053553390593 841.146446609407  L 412.407106781186 836.5  L 417.053553390593 831.853553390593  L 416.346446609407 831.146446609407  L 411.346446609407 836.146446609407  L 410.992893218813 836.5  L 411.346446609407 836.853553390593  L 416.346446609407 841.853553390593  L 417.053553390593 841.146446609407  Z M 493 831  L 493 842  L 494 842  L 494 831  L 493 831  Z M 486.946446609407 831.853553390593  L 491.592893218814 836.5  L 486.946446609407 841.146446609407  L 487.653553390593 841.853553390593  L 492.653553390593 836.853553390593  L 493.007106781187 836.5  L 492.653553390593 836.146446609407  L 487.653553390593 831.146446609407  L 486.946446609407 831.853553390593  Z " fill-rule="nonzero" fill="#d9001b" stroke="none" />
    <path d="M 410 836.5  L 494 836.5  " stroke-width="1" stroke="#d9001b" fill="none" />
  </g>
</svg>