<?xml version="1.0" encoding="utf-8"?>
<svg version="1.1" xmlns:xlink="http://www.w3.org/1999/xlink" width="34px" height="34px" xmlns="http://www.w3.org/2000/svg">
  <defs>
    <filter x="1260px" y="5170px" width="34px" height="34px" filterUnits="userSpaceOnUse" id="filter752">
      <feOffset dx="2" dy="2" in="SourceAlpha" result="shadowOffsetInner" />
      <feGaussianBlur stdDeviation="5" in="shadowOffsetInner" result="shadowGaussian" />
      <feComposite in2="shadowGaussian" operator="atop" in="SourceAlpha" result="shadowComposite" />
      <feColorMatrix type="matrix" values="0 0 0 0 0.666666666666667  0 0 0 0 0.666666666666667  0 0 0 0 0.666666666666667  0 0 0 0.349019607843137 0  " in="shadowComposite" />
    </filter>
    <g id="widget753">
      <path d="M 8.5859375 8.5859375  C 9.32351762820513 7.84835737179487  9.69230769230769 6.96073717948718  9.69230769230769 5.92307692307692  C 9.69230769230769 4.88541666666667  9.32351762820513 3.99779647435897  8.5859375 3.26021634615385  C 7.84835737179487 2.52263621794872  6.96073717948718 2.15384615384615  5.92307692307692 2.15384615384615  C 4.88541666666667 2.15384615384615  3.99779647435898 2.52263621794872  3.26021634615385 3.26021634615385  C 2.52263621794872 3.99779647435897  2.15384615384615 4.88541666666667  2.15384615384615 5.92307692307692  C 2.15384615384615 6.96073717948718  2.52263621794872 7.84835737179487  3.26021634615385 8.5859375  C 3.99779647435898 9.32351762820513  4.88541666666667 9.69230769230769  5.92307692307692 9.69230769230769  C 6.96073717948718 9.69230769230769  7.84835737179487 9.32351762820513  8.5859375 8.5859375  Z M 13.6887019230769 12.1658653846154  C 13.896233974359 12.3733974358974  14 12.6258012820513  14 12.9230769230769  C 14 13.2147435897436  13.8934294871795 13.4671474358974  13.6802884615385 13.6802884615385  C 13.4671474358974 13.8934294871795  13.2147435897436 14  12.9230769230769 14  C 12.6201923076923 14  12.3677884615385 13.8934294871795  12.1658653846154 13.6802884615385  L 9.28004807692308 10.8028846153846  C 8.27604166666667 11.4983974358974  7.15705128205128 11.8461538461538  5.92307692307692 11.8461538461538  C 5.12099358974359 11.8461538461538  4.35396634615385 11.6905048076923  3.62199519230769 11.3792067307692  C 2.89002403846154 11.0679086538462  2.25901442307692 10.6472355769231  1.72896634615385 10.1171875  C 1.19891826923077 9.58713942307692  0.778245192307693 8.95612980769231  0.466947115384615 8.22415865384615  C 0.155649038461538 7.4921875  0 6.72516025641026  0 5.92307692307692  C 0 5.12099358974359  0.155649038461538 4.35396634615385  0.466947115384615 3.62199519230769  C 0.778245192307693 2.89002403846154  1.19891826923077 2.25901442307692  1.72896634615385 1.72896634615385  C 2.25901442307692 1.19891826923077  2.89002403846154 0.778245192307692  3.62199519230769 0.466947115384616  C 4.35396634615385 0.155649038461538  5.12099358974359 0  5.92307692307692 0  C 6.72516025641026 0  7.4921875 0.155649038461538  8.22415865384615 0.466947115384616  C 8.95612980769231 0.778245192307692  9.58713942307692 1.19891826923077  10.1171875 1.72896634615385  C 10.6472355769231 2.25901442307692  11.0679086538462 2.89002403846154  11.3792067307692 3.62199519230769  C 11.6905048076923 4.35396634615385  11.8461538461538 5.12099358974359  11.8461538461538 5.92307692307692  C 11.8461538461538 7.15705128205128  11.4983974358974 8.27604166666667  10.8028846153846 9.28004807692308  L 13.6887019230769 12.1658653846154  Z " fill-rule="nonzero" fill="#402b54" stroke="none" transform="matrix(1 0 0 1 1268 5178 )" />
    </g>
  </defs>
  <g transform="matrix(1 0 0 1 -1260 -5170 )">
    <use xlink:href="#widget753" filter="url(#filter752)" />
    <use xlink:href="#widget753" />
  </g>
</svg>