<?xml version="1.0" encoding="utf-8"?>
<svg version="1.1" xmlns:xlink="http://www.w3.org/1999/xlink" width="20px" height="16px" xmlns="http://www.w3.org/2000/svg">
  <defs>
    <linearGradient gradientUnits="userSpaceOnUse" x1="10" y1="13.7663125948407" x2="10" y2="16" id="LinearGradient691">
      <stop id="Stop692" stop-color="#ffffff" offset="0" />
      <stop id="Stop693" stop-color="#ead4ff" stop-opacity="0.741176470588235" offset="0.81" />
      <stop id="Stop694" stop-color="#fff6ff" stop-opacity="0.227450980392157" offset="1" />
    </linearGradient>
  </defs>
  <g transform="matrix(1 0 0 1 -675 -545 )">
    <path d="M 19.7526041666667 13.0375  C 19.9175347222222 13.1958333333333  20 13.3833333333333  20 13.6  L 20 15.2  C 20 15.4166666666667  19.9175347222222 15.6041666666667  19.7526041666667 15.7625  C 19.5876736111111 15.9208333333333  19.3923611111111 16  19.1666666666667 16  L 0.833333333333333 16  C 0.607638888888889 16  0.412326388888889 15.9208333333333  0.247395833333333 15.7625  C 0.0824652777777778 15.6041666666667  0 15.4166666666667  0 15.2  L 0 13.6  C 0 13.3833333333333  0.0824652777777778 13.1958333333333  0.247395833333333 13.0375  C 0.412326388888889 12.8791666666667  0.607638888888889 12.8  0.833333333333333 12.8  L 19.1666666666667 12.8  C 19.3923611111111 12.8  19.5876736111111 12.8791666666667  19.7526041666667 13.0375  Z M 19.7526041666667 6.6375  C 19.9175347222222 6.79583333333333  20 6.98333333333333  20 7.2  L 20 8.8  C 20 9.01666666666667  19.9175347222222 9.20416666666667  19.7526041666667 9.3625  C 19.5876736111111 9.52083333333333  19.3923611111111 9.6  19.1666666666667 9.6  L 0.833333333333333 9.6  C 0.607638888888889 9.6  0.412326388888889 9.52083333333333  0.247395833333333 9.3625  C 0.0824652777777778 9.20416666666667  0 9.01666666666667  0 8.8  L 0 7.2  C 0 6.98333333333333  0.0824652777777778 6.79583333333333  0.247395833333333 6.6375  C 0.412326388888889 6.47916666666667  0.607638888888889 6.4  0.833333333333333 6.4  L 19.1666666666667 6.4  C 19.3923611111111 6.4  19.5876736111111 6.47916666666667  19.7526041666667 6.6375  Z M 19.7526041666667 0.237500000000001  C 19.9175347222222 0.395833333333332  20 0.583333333333332  20 0.800000000000001  L 20 2.4  C 20 2.61666666666667  19.9175347222222 2.80416666666667  19.7526041666667 2.9625  C 19.5876736111111 3.12083333333333  19.3923611111111 3.2  19.1666666666667 3.2  L 0.833333333333333 3.2  C 0.607638888888889 3.2  0.412326388888889 3.12083333333333  0.247395833333333 2.9625  C 0.0824652777777778 2.80416666666667  0 2.61666666666667  0 2.4  L 0 0.800000000000001  C 0 0.583333333333332  0.0824652777777778 0.395833333333332  0.247395833333333 0.237500000000001  C 0.412326388888889 0.0791666666666657  0.607638888888889 0  0.833333333333333 0  L 19.1666666666667 0  C 19.3923611111111 0  19.5876736111111 0.0791666666666657  19.7526041666667 0.237500000000001  Z " fill-rule="nonzero" fill="url(#LinearGradient691)" stroke="none" transform="matrix(1 0 0 1 675 545 )" />
  </g>
</svg>