<?xml version="1.0" encoding="utf-8"?>
<svg version="1.1" xmlns:xlink="http://www.w3.org/1999/xlink" width="20px" height="17px" xmlns="http://www.w3.org/2000/svg">
  <g transform="matrix(1 0 0 1 -1966 -1505 )">
    <path d="M 6.72433035714286 8.25149501661129  C 7.00334821428571 7.96910299003322  7.14285714285714 7.62834994462901  7.14285714285714 7.22923588039867  C 7.14285714285714 6.83012181616833  7.00334821428571 6.48936877076412  6.72433035714286 6.20697674418605  C 6.4453125 5.92458471760797  6.10863095238095 5.78338870431894  5.71428571428571 5.78338870431894  C 5.31994047619048 5.78338870431894  4.98325892857143 5.92458471760797  4.70424107142857 6.20697674418605  C 4.42522321428571 6.48936877076412  4.28571428571429 6.83012181616833  4.28571428571429 7.22923588039867  C 4.28571428571429 7.62834994462901  4.42522321428571 7.96910299003322  4.70424107142857 8.25149501661129  C 4.98325892857143 8.53388704318937  5.31994047619048 8.67508305647841  5.71428571428571 8.67508305647841  C 6.10863095238095 8.67508305647841  6.4453125 8.53388704318937  6.72433035714286 8.25149501661129  Z M 11.0100446428571 8.25149501661129  C 11.2890625 7.96910299003322  11.4285714285714 7.62834994462901  11.4285714285714 7.22923588039867  C 11.4285714285714 6.83012181616833  11.2890625 6.48936877076412  11.0100446428571 6.20697674418605  C 10.7310267857143 5.92458471760797  10.3943452380952 5.78338870431894  10 5.78338870431894  C 9.60565476190476 5.78338870431894  9.26897321428572 5.92458471760797  8.98995535714286 6.20697674418605  C 8.7109375 6.48936877076412  8.57142857142857 6.83012181616833  8.57142857142857 7.22923588039867  C 8.57142857142857 7.62834994462901  8.7109375 7.96910299003322  8.98995535714286 8.25149501661129  C 9.26897321428572 8.53388704318937  9.60565476190476 8.67508305647841  10 8.67508305647841  C 10.3943452380952 8.67508305647841  10.7310267857143 8.53388704318937  11.0100446428571 8.25149501661129  Z M 15.2957589285714 8.25149501661129  C 15.5747767857143 7.96910299003322  15.7142857142857 7.62834994462901  15.7142857142857 7.22923588039867  C 15.7142857142857 6.83012181616833  15.5747767857143 6.48936877076412  15.2957589285714 6.20697674418605  C 15.0167410714286 5.92458471760797  14.6800595238095 5.78338870431894  14.2857142857143 5.78338870431894  C 13.891369047619 5.78338870431894  13.5546875 5.92458471760797  13.2756696428571 6.20697674418605  C 12.9966517857143 6.48936877076412  12.8571428571429 6.83012181616833  12.8571428571429 7.22923588039867  C 12.8571428571429 7.62834994462901  12.9966517857143 7.96910299003322  13.2756696428571 8.25149501661129  C 13.5546875 8.53388704318937  13.891369047619 8.67508305647841  14.2857142857143 8.67508305647841  C 14.6800595238095 8.67508305647841  15.0167410714286 8.53388704318937  15.2957589285714 8.25149501661129  Z M 18.6607142857143 3.59767441860465  C 19.5535714285714 4.70841638981174  20 5.91893687707641  20 7.22923588039867  C 20 8.53953488372093  19.5535714285714 9.7500553709856  18.6607142857143 10.8607973421927  C 17.7678571428571 11.9715393133998  16.5550595238095 12.8488372093023  15.0223214285714 13.4926910299003  C 13.4895833333333 14.1365448504983  11.8154761904762 14.4584717607973  10 14.4584717607973  C 9.18154761904762 14.4584717607973  8.39657738095238 14.3906976744186  7.64508928571429 14.2551495016611  C 6.35788690476191 15.5579180509413  4.73958333333333 16.4201550387597  2.79017857142857 16.8418604651163  C 2.40327380952381 16.9171650055371  2.08333333333333 16.9661129568106  1.83035714285714 16.9887043189369  C 1.74107142857143 16.996234772979  1.65922619047619 16.9736434108527  1.58482142857143 16.9209302325581  C 1.51041666666667 16.8682170542636  1.46205357142857 16.8004429678848  1.43973214285714 16.7176079734219  C 1.40997023809524 16.6046511627907  1.484375 16.4653377630122  1.66294642857143 16.2996677740864  C 1.70014880952381 16.262015503876  1.7875744047619 16.1810631229236  1.92522321428571 16.0568106312292  C 2.06287202380952 15.9325581395349  2.1577380952381 15.8440753045404  2.20982142857143 15.7913621262458  C 2.26190476190476 15.7386489479513  2.34933035714286 15.6426356589147  2.47209821428571 15.5033222591362  C 2.59486607142857 15.3640088593577  2.68415178571429 15.2454042081949  2.73995535714286 15.1475083056478  C 2.79575892857143 15.0496124031008  2.87202380952381 14.9102990033223  2.96875 14.7295681063123  C 3.06547619047619 14.5488372093023  3.13988095238095 14.3681063122924  3.19196428571429 14.1873754152824  C 3.24404761904762 14.0066445182724  3.29799107142857 13.7901439645626  3.35379464285714 13.5378737541528  C 3.40959821428571 13.2856035437431  3.45610119047619 13.0126245847176  3.49330357142857 12.7189368770764  C 2.40699404761905 12.041196013289  1.5531994047619 11.2260243632337  0.931919642857143 10.2734219269103  C 0.310639880952381 9.32081949058693  0 8.30609080841639  0 7.22923588039867  C 0 5.91893687707641  0.446428571428571 4.70841638981174  1.33928571428571 3.59767441860465  C 2.23214285714286 2.48693244739756  3.44494047619048 1.60963455149502  4.97767857142857 0.96578073089701  C 6.51041666666667 0.321926910299004  8.18452380952381 0  10 0  C 11.8154761904762 0  13.4895833333333 0.321926910299004  15.0223214285714 0.96578073089701  C 16.5550595238095 1.60963455149502  17.7678571428571 2.48693244739756  18.6607142857143 3.59767441860465  Z " fill-rule="nonzero" fill="#402b54" stroke="none" transform="matrix(1 0 0 1 1966 1505 )" />
  </g>
</svg>