<?xml version="1.0" encoding="utf-8"?>
<svg version="1.1" xmlns:xlink="http://www.w3.org/1999/xlink" width="20px" height="16px" xmlns="http://www.w3.org/2000/svg">
  <g transform="matrix(1 0 0 1 -1997 -810 )">
    <path d="M 19.7879464285714 5.31  C 19.9293154761905 5.43666666666667  20 5.58666666666667  20 5.76  C 20 5.93333333333333  19.9293154761905 6.08333333333333  19.7879464285714 6.21  L 14.0736607142857 11.33  C 13.9322916666667 11.4566666666667  13.764880952381 11.52  13.5714285714286 11.52  C 13.3779761904762 11.52  13.2105654761905 11.4566666666667  13.0691964285714 11.33  C 12.9278273809524 11.2033333333333  12.8571428571429 11.0533333333333  12.8571428571429 10.88  L 12.8571428571429 8.32  L 10.3571428571429 8.32  C 9.62797619047619 8.32  8.97507440476191 8.34  8.3984375 8.38  C 7.82180059523809 8.42  7.24888392857143 8.49166666666667  6.6796875 8.595  C 6.11049107142857 8.69833333333333  5.61569940476191 8.84  5.1953125 9.02  C 4.7749255952381 9.2  4.38244047619048 9.43166666666667  4.01785714285714 9.715  C 3.65327380952381 9.99833333333333  3.35565476190476 10.335  3.125 10.725  C 2.89434523809524 11.115  2.71391369047619 11.5766666666667  2.58370535714286 12.11  C 2.45349702380952 12.6433333333333  2.38839285714286 13.2466666666667  2.38839285714286 13.92  C 2.38839285714286 14.2866666666667  2.40699404761905 14.6966666666667  2.44419642857143 15.15  C 2.44419642857143 15.19  2.45349702380952 15.2683333333333  2.47209821428571 15.385  C 2.49069940476191 15.5016666666667  2.5 15.59  2.5 15.65  C 2.5 15.75  2.46837797619048 15.8333333333333  2.40513392857143 15.9  C 2.34188988095238 15.9666666666667  2.25446428571429 16  2.14285714285714 16  C 2.02380952380952 16  1.91964285714286 15.9433333333333  1.83035714285714 15.83  C 1.77827380952381 15.77  1.72991071428571 15.6966666666667  1.68526785714286 15.61  C 1.640625 15.5233333333333  1.59040178571429 15.4233333333333  1.53459821428571 15.31  C 1.47879464285714 15.1966666666667  1.43973214285714 15.1166666666667  1.41741071428571 15.07  C 0.472470238095238 13.17  0 11.6666666666667  0 10.56  C 0 9.23333333333333  0.197172619047619 8.12333333333333  0.591517857142857 7.23  C 1.796875 4.54333333333333  5.05208333333333 3.2  10.3571428571429 3.2  L 12.8571428571429 3.2  L 12.8571428571429 0.640000000000001  C 12.8571428571429 0.466666666666665  12.9278273809524 0.316666666666665  13.0691964285714 0.19  C 13.2105654761905 0.0633333333333326  13.3779761904762 0  13.5714285714286 0  C 13.764880952381 0  13.9322916666667 0.0633333333333326  14.0736607142857 0.19  L 19.7879464285714 5.31  Z " fill-rule="nonzero" fill="#ffffff" stroke="none" transform="matrix(1 0 0 1 1997 810 )" />
  </g>
</svg>