<?xml version="1.0" encoding="utf-8"?>
<svg version="1.1" xmlns:xlink="http://www.w3.org/1999/xlink" width="13px" height="12px" xmlns="http://www.w3.org/2000/svg">
  <g transform="matrix(1 0 0 1 -1274 -1692 )">
    <path d="M 10.7075892857143 6.4375  C 11.6168154761905 5.45833333333333  12.0714285714286 4.53125  12.0714285714286 3.65625  C 12.0714285714286 3.234375  12.0194382440476 2.86197916666667  11.9154575892857 2.5390625  C 11.8114769345238 2.21614583333333  11.678478422619 1.95963541666667  11.5164620535714 1.76953125  C 11.3544456845238 1.57942708333333  11.1573660714286 1.42447916666667  10.9252232142857 1.3046875  C 10.6930803571429 1.18489583333333  10.4657738095238 1.10416666666667  10.2433035714286 1.0625  C 10.0208333333333 1.02083333333333  9.78385416666667 1  9.53236607142857 1  C 9.28087797619048 1  9.01004464285714 1.06640625  8.71986607142857 1.19921875  C 8.4296875 1.33203125  8.16248139880952 1.49869791666667  7.91824776785714 1.69921875  C 7.67401413690476 1.89973958333333  7.46484375 2.08723958333333  7.29073660714286 2.26171875  C 7.11662946428572 2.43619791666667  6.97154017857143 2.59635416666667  6.85546875 2.7421875  C 6.76841517857143 2.85677083333333  6.6499255952381 2.9140625  6.5 2.9140625  C 6.35007440476191 2.9140625  6.23158482142857 2.85677083333333  6.14453125 2.7421875  C 6.02845982142857 2.59635416666667  5.88337053571429 2.43619791666667  5.70926339285714 2.26171875  C 5.53515625 2.08723958333333  5.32598586309524 1.89973958333333  5.08175223214286 1.69921875  C 4.83751860119048 1.49869791666667  4.5703125 1.33203125  4.28013392857143 1.19921875  C 3.98995535714286 1.06640625  3.71912202380952 1  3.46763392857143 1  C 3.21614583333333 1  2.97916666666667 1.02083333333333  2.75669642857143 1.0625  C 2.53422619047619 1.10416666666667  2.30691964285714 1.18489583333333  2.07477678571429 1.3046875  C 1.84263392857143 1.42447916666667  1.64555431547619 1.57942708333333  1.48353794642857 1.76953125  C 1.32152157738095 1.95963541666667  1.18852306547619 2.21614583333333  1.08454241071429 2.5390625  C 0.980561755952381 2.86197916666667  0.928571428571428 3.234375  0.928571428571428 3.65625  C 0.928571428571428 4.53125  1.38076636904762 5.45572916666667  2.28515625 6.4296875  L 6.5 10.8046875  L 10.7075892857143 6.4375  Z M 12.0786830357143 0.96875  C 12.6928943452381 1.61458333333333  13 2.51041666666667  13 3.65625  C 13 4.80729166666667  12.4462425595238 5.97916666666667  11.3387276785714 7.171875  L 6.81919642857143 11.859375  C 6.73214285714286 11.953125  6.62574404761905 12  6.5 12  C 6.37425595238095 12  6.26785714285714 11.953125  6.18080357142857 11.859375  L 1.65401785714286 7.15625  C 1.60565476190476 7.11458333333333  1.53915550595238 7.046875  1.45452008928571 6.953125  C 1.36988467261905 6.859375  1.23567708333333 6.68880208333333  1.05189732142857 6.44140625  C 0.86811755952381 6.19401041666667  0.703683035714286 5.94010416666667  0.55859375 5.6796875  C 0.413504464285714 5.41927083333333  0.28413318452381 5.10416666666667  0.170479910714286 4.734375  C 0.0568266369047619 4.36458333333333  0 4.00520833333333  0 3.65625  C 0 2.51041666666667  0.307105654761905 1.61458333333333  0.921316964285714 0.96875  C 1.53552827380952 0.322916666666667  2.38430059523809 0  3.46763392857143 0  C 3.76748511904762 0  4.07338169642857 0.0559895833333326  4.38532366071429 0.16796875  C 4.697265625 0.279947916666666  4.98744419642857 0.430989583333333  5.255859375 0.62109375  C 5.52427455357143 0.811197916666666  5.75520833333333 0.989583333333332  5.94866071428571 1.15625  C 6.1421130952381 1.32291666666667  6.32589285714286 1.5  6.5 1.6875  C 6.67410714285714 1.5  6.85788690476191 1.32291666666667  7.05133928571429 1.15625  C 7.24479166666667 0.989583333333332  7.47572544642857 0.811197916666666  7.744140625 0.62109375  C 8.01255580357143 0.430989583333333  8.302734375 0.279947916666666  8.61467633928571 0.16796875  C 8.92661830357143 0.0559895833333326  9.23251488095238 0  9.53236607142857 0  C 10.6156994047619 0  11.4644717261905 0.322916666666667  12.0786830357143 0.96875  Z " fill-rule="nonzero" fill="#000000" stroke="none" transform="matrix(1 0 0 1 1274 1692 )" />
  </g>
</svg>